<svg width="25" height="25" viewBox="0 0 25 25" fill="none" xmlns="http://www.w3.org/2000/svg">
<path d="M23.0564 18.1549C21.4315 18.1549 19.8731 17.5094 18.7241 16.3604C17.5751 15.2114 16.9296 13.653 16.9296 12.0281C16.9296 10.4032 17.5751 8.84484 18.7241 7.69585C19.8731 6.54686 21.4315 5.90137 23.0564 5.90137" stroke="#9CA3AF" stroke-width="2" stroke-linecap="round" stroke-linejoin="round"/>
<path d="M23.0563 23.0563C21.6081 23.0563 20.174 22.7711 18.836 22.2169C17.498 21.6627 16.2823 20.8503 15.2582 19.8263C14.2342 18.8022 13.4219 17.5865 12.8676 16.2485C12.3134 14.9105 12.0282 13.4764 12.0282 12.0282C12.0282 10.5799 12.3134 9.14587 12.8676 7.80787C13.4219 6.46987 14.2342 5.25414 15.2582 4.23008C16.2823 3.20602 17.498 2.39369 18.836 1.83947C20.174 1.28525 21.6081 1 23.0563 1M4.67606 1V7.12676M4.67606 23.0563V10.8028M1.61268 7.12676H7.73944M8.35211 1V6.33273C8.35211 12.2928 1 12.2928 1 6.33273V1" stroke="#9CA3AF" stroke-width="2" stroke-linecap="round" stroke-linejoin="round"/>
</svg>
