<svg width="29" height="18" viewBox="0 0 29 18" fill="none" xmlns="http://www.w3.org/2000/svg">
<path d="M0 1.13396C0 0.507697 0.589652 0 1.31701 0H26.7792C27.5066 0 28.0962 0.507697 28.0962 1.13396C28.0962 1.76023 27.5066 2.26792 26.7792 2.26792H1.31701C0.589652 2.26792 0 1.76023 0 1.13396Z" fill="#312E81"/>
<path d="M0 8.69378C0 8.06751 0.589652 7.55981 1.31701 7.55981H26.7792C27.5066 7.55981 28.0962 8.06751 28.0962 8.69378C28.0962 9.32003 27.5066 9.82774 26.7792 9.82774H1.31701C0.589652 9.82774 0 9.32003 0 8.69378Z" fill="#312E81"/>
<path d="M1.31701 15.1194C0.589652 15.1194 0 15.6271 0 16.2533C0 16.8796 0.589652 17.3873 1.31701 17.3873H26.7792C27.5066 17.3873 28.0962 16.8796 28.0962 16.2533C28.0962 15.6271 27.5066 15.1194 26.7792 15.1194H1.31701Z" fill="#312E81"/>
</svg>
