<svg width="11" height="11" viewBox="0 0 11 11" fill="none" xmlns="http://www.w3.org/2000/svg">
<path d="M10.6025 9.06027L9.69488 9.27481C9.49134 9.32432 9.33181 9.47835 9.2878 9.68189L9.09527 10.4905C8.99075 10.9306 8.42964 11.0681 8.13809 10.7216L6.49328 8.82923C6.36125 8.6752 6.43277 8.43316 6.63081 8.38365C7.60449 8.1471 8.47915 7.6025 9.12277 6.82686C9.22729 6.70033 9.41433 6.68383 9.52985 6.79935L10.7511 8.02058C11.1692 8.43866 11.0206 8.96126 10.6025 9.06027Z" fill="#2563EB"/>
<path d="M0.397517 9.06027L1.30519 9.27481C1.50873 9.32432 1.66826 9.47835 1.71226 9.68189L1.9048 10.4905C2.00932 10.9306 2.57042 11.0681 2.86198 10.7216L4.50679 8.82923C4.63882 8.6752 4.5673 8.43316 4.36926 8.38365C3.39558 8.1471 2.52091 7.6025 1.87729 6.82686C1.77277 6.70033 1.58574 6.68383 1.47022 6.79935L0.24899 8.02058C-0.169089 8.43866 -0.0205608 8.96126 0.397517 9.06027Z" fill="#2563EB"/>
<path d="M5.51393 0C3.38503 0 1.66321 1.72182 1.66321 3.85072C1.66321 4.64837 1.89975 5.38001 2.30683 5.99062C2.90094 6.87079 3.84162 7.4924 4.93632 7.65193C5.12336 7.68494 5.31589 7.70144 5.51393 7.70144C5.71197 7.70144 5.9045 7.68494 6.09154 7.65193C7.18624 7.4924 8.12692 6.87079 8.72103 5.99062C9.1281 5.38001 9.36465 4.64837 9.36465 3.85072C9.36465 1.72182 7.64283 0 5.51393 0ZM7.19724 3.7297L6.74066 4.18628C6.66364 4.2633 6.61964 4.41183 6.64714 4.52185L6.77916 5.08845C6.88368 5.53404 6.64714 5.71007 6.25107 5.47352L5.70096 5.14896C5.60194 5.08845 5.43691 5.08845 5.3379 5.14896L4.78779 5.47352C4.39172 5.70457 4.15517 5.53404 4.25969 5.08845L4.39172 4.52185C4.41372 4.41733 4.37522 4.2633 4.2982 4.18628L3.83061 3.7297C3.56106 3.46015 3.64908 3.1906 4.02315 3.13009L4.61176 3.03107C4.71078 3.01456 4.8263 2.92655 4.87031 2.83853L5.19487 2.18941C5.3709 1.83734 5.65696 1.83734 5.83299 2.18941L6.15755 2.83853C6.20156 2.92655 6.31708 3.01456 6.4216 3.03107L7.01021 3.13009C7.37878 3.1906 7.46679 3.46015 7.19724 3.7297Z" fill="#2563EB"/>
</svg>
