<svg xmlns="http://www.w3.org/2000/svg" width="48" height="48" viewBox="0 0 48 48" fill="none">
<circle cx="24" cy="24" r="24" fill="#FFF3E0"/>
  <path d="M9 22.6c0-8.3 6.7-14 15-14s15 5.7 15 14z" fill="#F3A758"/>
  <ellipse cx="17.4" cy="16.6" rx="2" ry="1.2" fill="#FFE7C4" transform="rotate(-22 17.4 16.6)"/>
  <ellipse cx="24.6" cy="14" rx="2" ry="1.2" fill="#FFE7C4" transform="rotate(6 24.6 14)"/>
  <ellipse cx="31" cy="17.4" rx="2" ry="1.2" fill="#FFE7C4" transform="rotate(20 31 17.4)"/>
  <rect x="9" y="22.4" width="30" height="3.6" rx="1.4" fill="#7FC96B"/>
  <circle cx="14" cy="26.2" r="2.4" fill="#7FC96B"/><circle cx="21.4" cy="26.4" r="2.4" fill="#7FC96B"/>
  <circle cx="28.6" cy="26.4" r="2.4" fill="#7FC96B"/><circle cx="35" cy="26.2" r="2.4" fill="#7FC96B"/>
  <path d="M12.6 25.6h9.8l3.4 4.4h-9.8z" fill="#FFC845"/>
  <rect x="9.4" y="28.4" width="29.2" height="6.6" rx="3.3" fill="#8A5433"/>
  <path d="M10 34.6h28c0 3.8-3 6.8-6.8 6.8H16.8c-3.8 0-6.8-3-6.8-6.8z" fill="#E9954B"/>
</svg>
