<svg xmlns="http://www.w3.org/2000/svg" width="48" height="48" viewBox="0 0 48 48" fill="none">
<circle cx="24" cy="24" r="24" fill="#FFF1E2"/>
  <path d="M11 26.5c0-7.5 5.8-13 13-13s13 5.5 13 13z" fill="#FFFDF7"/>
  <rect x="13.6" y="19.4" width="8.6" height="3.2" rx="1.6" fill="#6FBF73" transform="rotate(-13 17.9 21)"/>
  <rect x="25.4" y="19.8" width="8.6" height="3.2" rx="1.6" fill="#F2A03D" transform="rotate(11 29.7 21.4)"/>
  <rect x="18.6" y="23.2" width="10" height="3.2" rx="1.6" fill="#E05C4B"/>
  <circle cx="24" cy="17.6" r="4" fill="#FFEBBC"/>
  <circle cx="24" cy="17.6" r="2.3" fill="#FFB300"/>
  <ellipse cx="24" cy="26.5" rx="16" ry="3.1" fill="#E9EFF6"/>
  <path d="M8 26.5h32c0 8.6-7.2 15.5-16 15.5S8 35.1 8 26.5z" fill="#FFFFFF"/>
  <path d="M8.6 30h30.8c-1.4 6.9-7.6 12-14.4 12S10 36.9 8.6 30z" fill="#F4F7FB"/>
</svg>
