<svg width="26" height="29" viewBox="0 0 26 29" fill="none" xmlns="http://www.w3.org/2000/svg">
<path d="M24.7795 22.1345C23.1546 22.1345 21.5962 21.489 20.4472 20.34C19.2982 19.191 18.6527 17.6327 18.6527 16.0077C18.6527 14.3828 19.2982 12.8245 20.4472 11.6755C21.5962 10.5265 23.1546 9.88098 24.7795 9.88098" stroke="#172133" stroke-width="2" stroke-linecap="round" stroke-linejoin="round"/>
<path d="M24.7795 27.0359C23.3312 27.0359 21.8972 26.7506 20.5592 26.1964C19.2212 25.6422 18.0055 24.8299 16.9814 23.8058C15.9573 22.7818 15.145 21.566 14.5908 20.228C14.0366 18.89 13.7513 17.456 13.7513 16.0077C13.7513 14.5595 14.0366 13.1254 14.5908 11.7874C15.145 10.4494 15.9573 9.23369 16.9814 8.20963C18.0055 7.18557 19.2212 6.37324 20.5592 5.81902C21.8972 5.26481 23.3312 4.97955 24.7795 4.97955M6.3992 4.97955V11.1063M6.3992 27.0359V14.7824M3.33582 11.1063H9.46258M10.0753 4.97955V10.3123C10.0753 16.2724 2.72314 16.2724 2.72314 10.3123V4.97955" stroke="#172133" stroke-width="2" stroke-linecap="round" stroke-linejoin="round"/>
</svg>
