<svg width="26" height="24" viewBox="0 0 26 24" fill="none" xmlns="http://www.w3.org/2000/svg">
<path d="M13 0C5.8201 0 0 4.59048 0 10.2538C0 13.9145 2.4336 17.1265 6.0931 18.9406C5.8942 19.6272 4.8139 23.362 4.771 23.6533C4.771 23.6533 4.745 23.8731 4.888 23.9576C4.93594 23.982 4.9884 23.9962 5.0421 23.9993C5.09579 24.0025 5.14955 23.9945 5.2 23.9758C5.6095 23.9199 9.9437 20.8743 10.6938 20.345C11.4578 20.453 12.2284 20.5069 13 20.5063C20.1799 20.5063 26 15.9158 26 10.2538C26 4.59178 20.1799 0 13 0ZM6.5624 13.116C6.55113 13.3074 6.4672 13.4872 6.32776 13.6187C6.18833 13.7502 6.00394 13.8235 5.8123 13.8235C5.62066 13.8235 5.43627 13.7502 5.29684 13.6187C5.1574 13.4872 5.07347 13.3074 5.0622 13.116V8.65948H3.8922C3.79574 8.65948 3.70023 8.64048 3.61112 8.60356C3.52201 8.56663 3.44103 8.51251 3.37283 8.44428C3.30463 8.37606 3.25052 8.29506 3.21361 8.20592C3.1767 8.11678 3.1577 8.02123 3.1577 7.92475C3.1577 7.82826 3.1767 7.73272 3.21361 7.64358C3.25052 7.55443 3.30463 7.47344 3.37283 7.40521C3.44103 7.33698 3.52201 7.28286 3.61112 7.24594C3.70023 7.20902 3.79574 7.19001 3.8922 7.19001H7.7324C7.9272 7.19001 8.11402 7.26742 8.25177 7.40521C8.38951 7.543 8.4669 7.72988 8.4669 7.92475C8.4669 8.11961 8.38951 8.30649 8.25177 8.44428C8.11402 8.58207 7.9272 8.65948 7.7324 8.65948H6.5624V13.116ZM12.8661 13.7194C12.7164 13.7878 12.5536 13.8228 12.389 13.8221C12.2636 13.8381 12.1364 13.8149 12.0248 13.7558C11.9131 13.6966 11.8224 13.6045 11.765 13.4918L11.3932 12.5191H9.1065L8.7347 13.4918C8.67734 13.6045 8.58663 13.6966 8.47494 13.7558C8.36326 13.8149 8.23605 13.8381 8.1107 13.8221C7.94654 13.8227 7.78422 13.7876 7.6349 13.7194C7.4282 13.6232 7.2293 13.3618 7.4568 12.6544L9.2508 7.92995C9.31306 7.7128 9.44427 7.52183 9.62463 7.38589C9.80499 7.24994 10.0247 7.17641 10.2505 7.17641C10.4763 7.17641 10.696 7.24994 10.8764 7.38589C11.0567 7.52183 11.1879 7.7128 11.2502 7.92995L13.0429 12.6505C13.2717 13.3618 13.0728 13.6245 12.87 13.7194H12.8661ZM16.6569 13.7194H14.2506C14.0642 13.7232 13.8838 13.653 13.749 13.5241C13.6143 13.3951 13.5361 13.218 13.5317 13.0315V7.94035C13.5317 7.73721 13.6124 7.54239 13.756 7.39875C13.8996 7.2551 14.0943 7.17441 14.2974 7.17441C14.5005 7.17441 14.6952 7.2551 14.8388 7.39875C14.9824 7.54239 15.0631 7.73721 15.0631 7.94035V12.3475H16.6569C16.8393 12.3475 17.0142 12.4199 17.1432 12.549C17.2721 12.678 17.3446 12.8529 17.3446 13.0354C17.3446 13.2178 17.2721 13.3928 17.1432 13.5218C17.0142 13.6508 16.8393 13.7233 16.6569 13.7233V13.7194ZM22.2365 13.6492C22.107 13.748 21.9483 13.8011 21.7854 13.8C21.6692 13.8006 21.5545 13.774 21.4504 13.7222C21.3464 13.6705 21.2559 13.5952 21.1861 13.5022L19.4272 11.1706L19.1672 11.4307V13.0679C19.1672 13.2669 19.0882 13.4578 18.9475 13.5985C18.8068 13.7392 18.616 13.8182 18.4171 13.8182C18.2182 13.8182 18.0274 13.7392 17.8867 13.5985C17.746 13.4578 17.667 13.2669 17.667 13.0679V7.94035C17.667 7.74135 17.746 7.5505 17.8867 7.40978C18.0274 7.26906 18.2182 7.19001 18.4171 7.19001C18.616 7.19001 18.8068 7.26906 18.9475 7.40978C19.0882 7.5505 19.1672 7.74135 19.1672 7.94035V9.55287L21.2589 7.4592C21.3138 7.40535 21.3789 7.36292 21.4503 7.33435C21.5217 7.30578 21.598 7.29164 21.6749 7.29274C21.8621 7.29757 22.0408 7.3714 22.1769 7.50005C22.3129 7.62871 22.3967 7.80312 22.412 7.98977C22.4186 8.07323 22.4074 8.15715 22.3789 8.23588C22.3504 8.31461 22.3054 8.38633 22.2469 8.44622L20.54 10.1563L22.386 12.6024C22.5058 12.7612 22.5576 12.9611 22.53 13.1581C22.5025 13.3552 22.3978 13.5332 22.2391 13.6531L22.2365 13.6492ZM10.2505 9.06131L10.9993 11.1901H9.5004L10.2505 9.06131Z" fill="black"/>
</svg>

