<svg width="22" height="18" viewBox="0 0 22 18" fill="none" xmlns="http://www.w3.org/2000/svg">
<path d="M0.00964355 1.62627C0.00964355 1.00001 0.454151 0.49231 1.00247 0.49231H20.1971C20.7454 0.49231 21.1899 1.00001 21.1899 1.62627C21.1899 2.25254 20.7454 2.76023 20.1971 2.76023H1.00247C0.454151 2.76023 0.00964355 2.25254 0.00964355 1.62627Z" fill="#9CA3AF"/>
<path d="M0.00964355 9.18602C0.00964355 8.55976 0.454151 8.05206 1.00247 8.05206H20.1971C20.7454 8.05206 21.1899 8.55976 21.1899 9.18602C21.1899 9.81227 20.7454 10.32 20.1971 10.32H1.00247C0.454151 10.32 0.00964355 9.81227 0.00964355 9.18602Z" fill="#9CA3AF"/>
<path d="M1.00247 15.6118C0.454151 15.6118 0.00964355 16.1195 0.00964355 16.7457C0.00964355 17.372 0.454151 17.8797 1.00247 17.8797H20.1971C20.7454 17.8797 21.1899 17.372 21.1899 16.7457C21.1899 16.1195 20.7454 15.6118 20.1971 15.6118H1.00247Z" fill="#9CA3AF"/>
</svg>
